<svg width="62" height="62" viewBox="0 0 62 62" fill="none" xmlns="http://www.w3.org/2000/svg">
<path d="M24.5185 19.1714L28.2047 14.5997C28.9852 13.6328 28.9106 12.2334 28.0321 11.3549L19.2762 2.59897C18.3844 1.70722 16.9596 1.64588 15.9925 2.45525L5.00994 11.6809C4.12853 12.4212 3.88688 13.6756 4.43037 14.6902C4.43037 14.6902 5.90717 17.703 7.27957 20.0106C11.0466 26.3525 17.1724 33.8501 22.6274 39.3051C28.0832 44.7609 35.5807 50.8867 41.9227 54.6537C44.2302 56.0261 47.243 57.5029 47.243 57.5029C48.2577 58.0463 49.512 57.8047 50.2517 56.9226L59.4773 45.94C60.2875 44.9738 60.226 43.5488 59.335 42.6578L50.5784 33.9012C49.6998 33.0226 48.3004 32.948 47.3328 33.7278L42.7618 37.4148C41.8557 38.1456 40.5579 38.131 39.6676 37.3802C39.6676 37.3802 35.7679 34.757 31.4718 30.4609C27.1771 26.1662 24.5532 22.2658 24.5532 22.2658C23.8023 21.3754 23.7877 20.0776 24.5185 19.1714Z" fill="white"/>
</svg>
